# xmcd
#
# Track frame offsets:
#	150
#	16430
#	41833
#	58887
#	74405
#	95593
#	117578
#	132874
#	150219
#	164870
#	179439
#	200708
#	215993
#	232931
#	247688
#	273049
#	289507
#	314214
#	329534
#	346268
#
# Disc length: 4795 seconds
# Revision: 0
# Processed by: cddbd v1.5.2PL0 Copyright (c) Steve Scherf et al.
# Submitted via: dBpowerAMP V12.0
#
DISCID=3912b914
DTITLE=Various Artist - Gnadenlos Sommer Folge5 CD2
DYEAR=2003
DGENRE=Discofox
TTITLE0=Jürgen Drews - Spiel Satz und Sieg
TTITLE1=Oliver Frank - Schwerelos (Up'n Away-Maxi-Power Version)
TTITLE2=Cordalis - La Felicidad
TTITLE3=Modern Talking - Mrs Robota
TTITLE4=Peter White - Da ist dieser Zauber
TTITLE5=Matthias Carras - Du bist so süss wenn du sauer bist (Power Mix)
TTITLE6=Tommy Fischer - Ich bin frei
TTITLE7=Kristeen - Ich will nicht irgendwann
TTITLE8=Modern Talking - Rouge et Noir
TTITLE9=Ireen Sheer - Jede Nacht mit dir ist Wahnsinn
TTITLE10=Mike Bauhaus - Jetzt bist du raus (DJ Mix)
TTITLE11=Nico Gemba - Wieder im Spiel 2003
TTITLE12=Frank Lars - Das kann doch nicht wahr sein
TTITLE13=Jens Bogner - Nicht für immer nur für ewig
TTITLE14=Jeannine - Mi Amor (Maxi Version)
TTITLE15=Marianne Rosenberg - Wieder da
TTITLE16=Ronny Krappmann - So wie du (Maxi Version)
TTITLE17=Bert Silver - Und es knallt wie einst
TTITLE18=Frank Lars - Wenn ich ein Teufel wär
TTITLE19=Marianne Rosenberg - Er gehört zu mir
EXTD=
EXTT0=
EXTT1=
EXTT2=
EXTT3=
EXTT4=
EXTT5=
EXTT6=
EXTT7=
EXTT8=
EXTT9=
EXTT10=
EXTT11=
EXTT12=
EXTT13=
EXTT14=
EXTT15=
EXTT16=
EXTT17=
EXTT18=
EXTT19=
PLAYORDER=
